<?xml version="1.0" encoding="utf-8"?>
<!-- Generator: Adobe Illustrator 21.0.2, SVG Export Plug-In . SVG Version: 6.00 Build 0)  -->
<svg version="1.1" id="Capa_1" xmlns="http://www.w3.org/2000/svg" xmlns:xlink="http://www.w3.org/1999/xlink" x="0px" y="0px"
	 viewBox="0 0 362 138.3" style="enable-background:new 0 0 362 138.3;" xml:space="preserve">
<style type="text/css">
	.st0{fill:#1D1D1B;}
	.st1{fill:#FFFFFF;}
	.st2{fill:none;}
	.st3{font-family:'Verdana';}
	.st4{font-size:9px;}
</style>
<g>
	<path class="st0" d="M99.1,29.6H120c6,0,18.7,1.2,18.7,15.3c0,13.9-4.9,15.3-11.6,19c1.6,2.8,4.7,9.2,10.6,9.2c0.6,0,3.4-0.8,4-1.1
		l2.7,5.4c-1.3,1.2-5.3,4.4-9.8,4.4c-7.8,0-11.4-5.6-12.8-7.8c-1.3-2.1-4.8-9.3-4.8-9.3h-6.8v16.1h-11L99.1,29.6z M116.5,56.2
		c9.6,0,11.6-2.4,11.6-10.1c0-8-9.1-7.8-11.6-7.8h-6.4v17.9C110.1,56.2,116.5,56.2,116.5,56.2z"/>
	<path class="st0" d="M184.8,69.3c0.2,1.3,0.5,2.3,1,2.9c0.5,0.7,1.3,1,2.3,1s2.1-0.2,3.3-0.7s2-1,2.5-1.4l2.2,5.3
		c-1.2,1.4-2.6,2.5-4.2,3.5c-1.6,0.9-3.3,1.5-5.1,1.8c-0.6,0.1-1.2,0.1-1.7,0.1c-0.8,0-1.5-0.1-2.1-0.2c-1.7-0.3-3.1-0.9-4.4-1.7
		c-1.3-0.9-2.3-2.1-3.1-3.5c-0.3,0.5-1.1,1.2-2.2,2.1c-1.1,0.9-2.6,1.7-4.4,2.5s-3.9,1.2-6.2,1.2c-4.5,0-7.8-1.3-9.7-4
		c-2-2.6-2.9-6.5-2.9-11.7V42.9l10.6,0.1v20.5c0,2.3,0.2,4.1,0.6,5.6c0.4,1.4,1,2.5,1.9,3.2s2.1,1.1,3.7,1.1c1.1,0,2.1-0.2,3-0.6
		s1.6-0.8,2.1-1.2c0.5-0.4,1.2-0.9,2.1-1.7c0-1-0.1-2.6-0.1-4.6V43.1h10.5v21.1C184.5,66.2,184.6,68,184.8,69.3z"/>
	<path class="st0" d="M211.9,63.8c0,2.2,0.1,4,0.3,5.3c0.2,1.3,0.5,2.3,1,3s1.2,1,2.2,1s2.1-0.2,3.3-0.7s2-1,2.5-1.4l2.2,5.3
		c-1.4,1.6-3.1,3-5.1,4s-4.1,1.6-6.1,1.6c-4.1,0-6.9-1.3-8.5-3.9s-2.4-5.9-2.4-10v-1V51.6h-4.6V43h4.6V33l10.6-1.4v11.3h8.7l-1,8.6
		h-7.7v11.9V63.8z"/>
	<path class="st0" d="M247.9,74c8.4,0,13.9-2.8,15.2-3.5l1.6,5.8c-0.8,0.7-8.4,5.6-17.6,5.6c-17.5,0-18.3-12.6-18.3-20.7
		c0-5.9,0-19.3,18.4-19.3c17.5,0,18.2,11.9,16.7,23h-24.4C239.4,69.7,241.1,74,247.9,74z M247,50.1c-6.5,0-7.3,5-7.5,7.5h14.4
		C254.2,55.3,254.4,50.1,247,50.1z"/>
	<path class="st0" d="M299.1,50.1c-0.8-0.2-1.8-0.3-3-0.3c-1.5,0-3,0.4-4.5,1.1c-1.5,0.7-2.7,1.7-3.6,3c-0.9,1.2-1.4,2.5-1.4,3.9V81
		h-10.5V43.7l10.5-1.4v5.5c1.1-1.7,2.7-3.2,4.6-4.3c2-1.1,4.2-1.7,6.8-1.7c1.2,0,2.3,0.1,3.3,0.4c1,0.3,1.7,0.5,2,0.7l-1,8.6
		C301.4,50.8,299.9,50.3,299.1,50.1z"/>
	<path class="st0" d="M332,43c2.5,0.8,4.8,2.5,6.6,5.3c1.9,2.7,2.8,6.8,2.8,12.1v3.1c0,4.9-0.8,8.8-2.5,11.5s-3.8,4.5-6.4,5.5
		s-5.6,1.5-9.1,1.5c-3.1,0-6-0.4-8.5-1.2s-4.8-2.5-6.6-5.3c-1.9-2.7-2.8-6.8-2.8-12.1v-3.1c0-4.9,0.8-8.8,2.5-11.5s3.8-4.6,6.4-5.5
		c2.6-1,5.6-1.5,9.1-1.5C326.6,41.8,329.4,42.2,332,43z M317.7,70.1c1.1,2.1,3,3.1,5.8,3.1c3,0,4.9-1.1,5.9-3.2s1.5-4.8,1.5-8.2
		c0-3.5-0.5-6.2-1.6-8.3s-3-3.1-5.8-3.1c-3,0-4.9,1.1-5.9,3.2c-1,2.1-1.5,4.8-1.5,8.1C316,65.3,316.6,68,317.7,70.1z"/>
</g>
<path class="st1" d="M38.9,37c0-5.1-4.1-9.2-9.2-9.2s-9.2,4.1-9.2,9.2s4.1,9.2,9.2,9.2S38.9,42.1,38.9,37"/>
<circle class="st0" cx="29.7" cy="37" r="9.2"/>
<rect x="20.9" y="62.4" class="st0" width="17.7" height="17.7"/>
<polygon class="st0" points="62.8,27 52.2,46.9 73.3,46.9 "/>
<polygon class="st0" points="53.8,71.2 62.8,84.1 71.7,71.2 62.8,58.3 "/>
<rect x="20.5" y="27" class="st2" width="57.6" height="57.6"/>
<rect x="99" y="99" class="st2" width="242.4" height="20"/>
<text transform="matrix(1 0 0 1 99 105.8732)"><tspan x="0" y="0" class="st3 st4">Topos</tspan><tspan x="27.9" y="0" class="st3 st4"> </tspan><tspan x="31.3" y="0" class="st3 st4">de</tspan><tspan x="42.8" y="0" class="st3 st4"> </tspan><tspan x="46.2" y="0" class="st3 st4">Escalada</tspan><tspan x="87.4" y="0" class="st3 st4"> </tspan><tspan x="90.8" y="0" class="st3 st4">Deportiva</tspan><tspan x="136.8" y="0" class="st3 st4"> </tspan><tspan x="140.2" y="0" class="st3 st4">en</tspan><tspan x="151.7" y="0" class="st3 st4"> </tspan><tspan x="155.2" y="0" class="st3 st4">el</tspan><tspan x="163.5" y="0" class="st3 st4"> </tspan><tspan x="166.9" y="0" class="st3 st4">Cajón</tspan><tspan x="194" y="0" class="st3 st4"> </tspan><tspan x="197.4" y="0" class="st3 st4">del</tspan><tspan x="211.5" y="0" class="st3 st4"> </tspan><tspan x="215" y="0" class="st3 st4">Maipo</tspan></text>
</svg>
